# xmcd
#
# Track frame offsets:
# 182
# 13077
# 25157
# 36767
# 48007
# 57152
# 68195
# 79127
# 92290
# 104840
# 115185
# 127590
# 137987
# 149500
# 162615
# 179607
# 191330
# 205950
# 220222
#
# Disc length: 3083 seconds
#
#
# Revision: 3
# Processed by: cddbd v1.5.2PL0 Copyright (c) Steve Scherf et al.
# Submitted via: FreeRIP 2.951 
#
DISCID=100c0913
DTITLE=Various Artist - Country Collection Cd1
DYEAR=1993
DGENRE=Country
TTITLE0=Kenny Rogers - Ruby Don't Take Your Love To Town
TTITLE1=Waylon Jennings - Don't Think Twice, It's All Right
TTITLE2=Tina Turner - Stand By Your Man
TTITLE3=Conway Twytty - Turn The Other Cheek
TTITLE4=Frankie Laine - Rawhide
TTITLE5=Johnny Cash - Oh Lonesome Me
TTITLE6=Kris Kristofferson - Jesus Was A Capricorn
TTITLE7=Gene Vincent - I'm A Lonesome Fugitive
TTITLE8=Nancy Sinatra - Jackson
TTITLE9=Buck Owens - Rollin' In My Sweet Baby's Arms
TTITLE10=Randy Travis - Dreamin'
TTITLE11=Wanda Jackson - It's Only Make Believe
TTITLE12=Willie Nelson - Night Life
TTITLE13=Nice Boys From NY - Jerry Lee Is A Hero To Me
TTITLE14=Lynn Anderson - Blue Bayou
TTITLE15=Brenda Lee - Silver Threads And Golden Needles
TTITLE16=Merle Kaggar - Train Whistle Blues
TTITLE17=Tammy Wynette - Crying In The Rain (Live)
TTITLE18=George Jones - She's My Rock (Live)
EXTD=
EXTT0=
EXTT1=
EXTT2=
EXTT3=
EXTT4=
EXTT5=
EXTT6=
EXTT7=
EXTT8=
EXTT9=
EXTT10=
EXTT11=
EXTT12=
EXTT13=
EXTT14=
EXTT15=
EXTT16=
EXTT17=
EXTT18=
PLAYORDER=
